<?xml version="1.0" encoding="UTF-8"?>
<svg viewBox="0 0 1200 1200" xmlns="http://www.w3.org/2000/svg">
 <rect x="-120" y="-120" width="1440" height="1440" fill="#fff"/>
 <path d="m711.7 789.08c0 26.715 21.727 48.473 48.473 48.473 26.715 0 48.473-21.727 48.473-48.473 0-26.715-21.727-48.473-48.473-48.473-26.715 0-48.473 21.727-48.473 48.473zm48.473-28.574c15.762 0 28.574 12.812 28.574 28.574s-12.812 28.574-28.574 28.574-28.574-12.812-28.574-28.574 12.812-28.574 28.574-28.574zm-393.74 115.8h352.5c0.62109 1.0938 1.0039 2.4492 1.0039 4.0156 0 14.699 11.957 26.688 26.688 26.688h27.098c14.699 0 26.688-11.957 26.688-27.188 0-2.5078 1.3281-4.8398 3.3945-5.875 2.8047-1.418 5.4922-2.9805 8.1172-4.6641 1.9492-1.2383 4.5742-1.2383 7.1445 0.26563 6.168 3.5703 13.371 4.5156 20.25 2.6562 6.8789-1.832 12.637-6.2578 16.207-12.426l13.551-23.469c7.3516-12.754 2.9805-29.078-10.156-36.664-2.2148-1.2695-3.5117-3.8086-3.3672-6.5547 0.058593-1.3281 0.089843-2.6562 0.089843-3.9844s-0.03125-2.6562-0.089843-3.957c-0.14844-2.7734 1.1523-5.3125 3.75-6.8203 12.754-7.3516 17.121-23.703 9.7695-36.457l-13.551-23.469c-3.5703-6.168-9.3008-10.598-16.207-12.426-6.8789-1.832-14.082-0.88672-20.664 2.8945-2.1836 1.2383-4.8398 1.2695-6.7617 0.03125-2.6289-1.6836-5.3438-3.2188-8.1172-4.6641-2.0664-1.0625-3.3945-3.3672-3.3945-6.375 0-11.57-7.4375-21.344-17.742-25.031v-340.72c0-21.551-17.535-39.086-39.086-39.086l-377.12-0.03125c-21.551 0-39.086 17.535-39.086 39.086v505.18c0 21.551 17.535 39.086 39.086 39.086zm406.2-185.27h1.0625c3.75 0 6.7891 3.0391 6.7891 7.293 0 10.066 5.4609 19.098 14.23 23.586 2.2148 1.1211 4.3672 2.3633 6.4336 3.6914 8.2344 5.2852 18.773 5.4609 27.836 0.23438 1.5664-0.91406 3.3945-1.1523 5.1641-0.67969 1.7422 0.47266 3.2188 1.5938 4.1328 3.1875l13.551 23.469c0.91406 1.5664 1.1523 3.3945 0.67969 5.1641-0.47266 1.7695-1.5938 3.2188-3.543 4.3398-8.707 5.0195-13.785 14.523-13.285 24.797 0.058593 1.0039 0.058593 1.9766 0.058593 2.9805 0 1.0039-0.03125 2.0078-0.089843 3.0117-0.5 10.242 4.6055 19.75 13.668 24.973 1.5664 0.91406 2.6875 2.3906 3.1602 4.1328 0.47266 1.7695 0.23438 3.6016-0.67969 5.1641l-13.551 23.469c-0.91406 1.5664-2.3633 2.6875-4.1328 3.1602s-3.6016 0.20703-5.5781-0.91406c-8.6484-4.9883-19.16-4.8398-27.426 0.44141-2.0664 1.3281-4.2227 2.5664-6.4336 3.6914-8.7695 4.4883-14.23 13.52-14.23 24.09 0 3.75-3.0391 6.7891-6.7891 6.7891h-27.098c-3.75 0-6.7891-3.0391-6.7891-7.293 0-8.1172-3.6602-15.438-9.625-20.367-0.64844-0.64844-1.4453-1.1211-2.2422-1.5664-0.79688-0.53125-1.4766-1.2109-2.3633-1.6523-2.2148-1.1211-4.3398-2.3633-6.4336-3.6914-4.1914-2.6875-9.0039-4.0742-13.875-4.0742-4.6953 0-9.5039 1.2695-13.934 3.8359-3.2461 1.8594-7.4102 0.76562-9.3008-2.4805l-13.551-23.469c-0.91406-1.5664-1.1523-3.3945-0.67969-5.1641 0.47266-1.7695 1.5938-3.2188 3.543-4.3398 8.707-5.0195 13.785-14.523 13.285-24.797-0.058594-1.0039-0.058594-1.9766-0.058594-2.9805 0-1.0039 0.03125-2.0078 0.089844-3.0117 0.5-10.242-4.6055-19.75-13.668-24.973-1.5664-0.91406-2.6875-2.3906-3.1602-4.1328-0.47266-1.7695-0.23438-3.6016 0.67969-5.1641l13.551-23.469c0.91406-1.5664 2.3633-2.6875 4.1328-3.1602 1.7422-0.47266 3.6016-0.23437 5.5781 0.91406 8.6797 5.0195 19.16 4.8125 27.426-0.44141 2.0664-1.3281 4.2227-2.5664 6.4336-3.6914 8.7695-4.4883 14.23-13.52 14.23-24.09 0-3.75 3.0391-6.7891 6.7891-6.7891h26.035zm-425.38-358.96c0-10.598 8.6211-19.219 19.219-19.219h377.12c10.598 0 19.188 8.6211 19.188 19.219v62.23h-415.52zm0 82.094h415.52v257h-16.148c-14.699 0-26.688 11.957-26.688 27.188 0 2.5078-1.3281 4.8398-3.3945 5.875-2.8047 1.418-5.4922 2.9805-8.1172 4.6641-1.918 1.2383-4.5742 1.2383-7.1445-0.26562-6.168-3.5703-13.371-4.5156-20.25-2.6562-6.8789 1.832-12.637 6.2578-16.207 12.426l-13.551 23.469c-7.3516 12.754-2.9805 29.078 10.156 36.664 2.2148 1.2695 3.5117 3.8086 3.3672 6.5547-0.058594 1.3281-0.089844 2.6562-0.089844 3.9844s0.03125 2.6562 0.089844 3.957c0.14844 2.7734-1.1523 5.3125-3.75 6.8203-12.754 7.3516-17.121 23.703-9.7695 36.457l11.633 20.133h-296.46c-10.598 0-19.219-8.6211-19.219-19.219zm147.36-59.629c0 5.4922-4.457 9.918-9.9492 9.918l-86.379-0.058594c-5.4922 0-9.918-4.457-9.918-9.9492s4.457-9.918 9.9492-9.918l86.379 0.058594c5.4922 0 9.918 4.457 9.918 9.9492zm157.34-0.058594c0 5.4922-4.457 9.918-9.9492 9.918h-0.03125l-28.102-0.058594c-5.4922 0-9.918-4.4883-9.918-9.9492 0-5.4922 4.457-9.918 9.9492-9.918h0.03125l28.102 0.058594c5.4922 0 9.918 4.4883 9.918 9.9492zm75.453 0.29688c0 5.4922-4.457 9.918-9.9492 9.918h-0.03125l-28.102-0.058594c-5.4922 0-9.918-4.4883-9.918-9.9492 0-5.4922 4.457-9.918 9.9492-9.918h0.03125l28.102 0.058593c5.4922 0 9.918 4.4883 9.918 9.9492zm-330.71 176.88v-56.973c0-5.4922 4.457-9.9492 9.9492-9.9492 5.4922 0 9.9492 4.457 9.9492 9.9492v56.973c0 5.4922-4.457 9.9492-9.9492 9.9492-5.4922 0-9.9492-4.457-9.9492-9.9492zm19.895 203.48v57.004c0 5.4922-4.457 9.9492-9.9492 9.9492-5.4922 0-9.9492-4.457-9.9492-9.9492v-57.004c0-5.4922 4.457-9.9492 9.9492-9.9492 5.4922 0 9.9492 4.457 9.9492 9.9492zm61.105-139.25c5.4922 0 9.9492 4.457 9.9492 9.9492v57.004c0 5.4922-4.457 9.9492-9.9492 9.9492s-9.9492-4.457-9.9492-9.9492v-57.004c0-5.4922 4.457-9.9492 9.9492-9.9492zm87.852 9.918v57.004c0 5.4922-4.457 9.9492-9.9492 9.9492-5.4922 0-9.9492-4.457-9.9492-9.9492v-57.004c0-5.4922 4.457-9.9492 9.9492-9.9492 5.4922 0 9.9492 4.457 9.9492 9.9492zm63.734-74.156v-56.973c0-5.4922 4.457-9.9492 9.9492-9.9492 5.4922 0 9.9492 4.457 9.9492 9.9492v56.973c0 5.4922-4.457 9.9492-9.9492 9.9492-5.4922 0-9.9492-4.457-9.9492-9.9492zm71.055 0v-56.973c0-5.4922 4.457-9.9492 9.9492-9.9492 5.4922 0 9.9492 4.457 9.9492 9.9492v56.973c0 5.4922-4.457 9.9492-9.9492 9.9492-5.4922 0-9.9492-4.457-9.9492-9.9492zm-222.88 9.9492h0.44141c18.035 0 32.707-14.672 32.707-32.707v-11.426c0-18.035-14.672-32.707-33.152-32.707-18.035 0-32.707 14.672-32.707 32.707v11.426c0 18.035 14.672 32.707 32.707 32.707zm-12.84-44.164c0-7.0859 5.7578-12.84 13.285-12.84 7.0859 0 12.84 5.7578 12.84 12.84v11.426c0 7.0859-5.7578 12.84-12.84 12.84h-0.44141c-7.0859 0-12.84-5.7578-12.84-12.84zm12.84 304.62h0.44141c18.035 0 32.707-14.672 32.707-32.707v-11.426c0-18.035-14.672-32.707-33.152-32.707-18.035 0-32.707 14.672-32.707 32.707v11.426c0 18.035 14.672 32.707 32.707 32.707zm-12.84-44.164c0-7.0859 5.7578-12.84 13.285-12.84 7.0859 0 12.84 5.7578 12.84 12.84v11.426c0 7.0859-5.7578 12.84-12.84 12.84h-0.44141c-7.0859 0-12.84-5.7578-12.84-12.84zm100.49 44.164h0.44141c18.035 0 32.707-14.672 32.707-32.707v-11.426c0-18.035-14.672-32.707-33.152-32.707-18.035 0-32.707 14.672-32.707 32.707v11.426c0 18.035 14.672 32.707 32.707 32.707zm-12.84-44.164c0-7.0859 5.7578-12.84 13.285-12.84 7.0859 0 12.84 5.7578 12.84 12.84v11.426c0 7.0859-5.7578 12.84-12.84 12.84h-0.44141c-7.0859 0-12.84-5.7578-12.84-12.84zm85.961-86.227h0.44141c18.035 0 32.707-14.672 32.707-32.707v-11.426c0-18.035-14.672-32.707-33.152-32.707-18.035 0-32.707 14.672-32.707 32.707v11.426c0 18.035 14.672 32.707 32.707 32.707zm-12.812-44.164c0-7.0859 5.7578-12.84 13.285-12.84 7.0859 0 12.84 5.7578 12.84 12.84v11.426c0 7.0859-5.7578 12.84-12.84 12.84h-0.44141c-7.0859 0-12.84-5.7578-12.84-12.84zm-60.309-85.902h0.44141c18.035 0 32.707-14.672 32.707-32.707v-11.426c0-18.035-14.672-32.707-33.152-32.707-18.035 0-32.707 14.672-32.707 32.707v11.426c0 18.035 14.672 32.707 32.707 32.707zm-12.84-44.164c0-7.0859 5.7578-12.84 13.285-12.84 7.0859 0 12.84 5.7578 12.84 12.84v11.426c0 7.0859-5.7578 12.84-12.84 12.84h-0.44141c-7.0859 0-12.84-5.7578-12.84-12.84zm-145.86 172.54h0.44141c18.035 0 32.707-14.672 32.707-32.707v-11.426c0-18.035-14.672-32.707-33.152-32.707-18.035 0-32.707 14.672-32.707 32.707v11.426c0 18.035 14.672 32.707 32.707 32.707zm-12.84-44.164c0-7.0859 5.7578-12.84 13.285-12.84 7.0859 0 12.84 5.7578 12.84 12.84v11.426c0 7.0859-5.7578 12.84-12.84 12.84h-0.44141c-7.0859 0-12.84-5.7578-12.84-12.84z" fill="#17345b"/>
</svg>
